<?xml version="1.0" encoding="UTF-8" standalone="no"?>
<!-- Created with Inkscape (http://www.inkscape.org/) -->

<svg
   width="20.337143mm"
   height="26.500166mm"
   viewBox="0 0 20.337143 26.500166"
   version="1.1"
   id="svg5"
   inkscape:version="1.1 (c68e22c387, 2021-05-23)"
   sodipodi:docname="CarpenPi_1.svg"
   inkscape:export-filename="C:\Users\janne\bitmap.png"
   inkscape:export-xdpi="38.76923"
   inkscape:export-ydpi="38.76923"
   xmlns:inkscape="http://www.inkscape.org/namespaces/inkscape"
   xmlns:sodipodi="http://sodipodi.sourceforge.net/DTD/sodipodi-0.dtd"
   xmlns="http://www.w3.org/2000/svg"
   xmlns:svg="http://www.w3.org/2000/svg">
  <sodipodi:namedview
     id="namedview7"
     pagecolor="#ffffff"
     bordercolor="#666666"
     borderopacity="1.0"
     inkscape:pageshadow="2"
     inkscape:pageopacity="0.0"
     inkscape:pagecheckerboard="0"
     inkscape:document-units="mm"
     showgrid="false"
     inkscape:zoom="6.5087698"
     inkscape:cx="61.071449"
     inkscape:cy="48.626701"
     inkscape:window-width="1920"
     inkscape:window-height="1017"
     inkscape:window-x="3512"
     inkscape:window-y="-8"
     inkscape:window-maximized="1"
     inkscape:current-layer="layer2"
     inkscape:object-nodes="false"
     inkscape:snap-others="false"
     inkscape:snap-nodes="false"
     fit-margin-top="0"
     fit-margin-left="0"
     fit-margin-right="0"
     fit-margin-bottom="0" />
  <defs
     id="defs2" />
  <g
     inkscape:groupmode="layer"
     id="layer2"
     inkscape:label="carpentries"
     style="display:inline"
     transform="translate(-92.517118,-215.02001)">
    <g
       id="g6855"
       inkscape:export-filename="J:\CarpenPi\images\213x220logo.png"
       inkscape:export-xdpi="266.54001"
       inkscape:export-ydpi="266.54001">
      <path
         id="path4"
         style="fill:#071159;fill-rule:evenodd;stroke-width:0.264583"
         d="m 95.335248,225.79675 -0.02177,-5.93995 7.749802,-4.83679 3.70658,2.21268 c -2.67304,1.73686 -3.90142,2.4688 -6.61128,4.15372 l -0.051,1.58091 z" />
      <path
         id="path6"
         style="fill:#071159;fill-rule:evenodd;stroke-width:0.264583"
         d="m 95.703548,234.07691 -3.18643,-5.04862 7.616372,-4.45683 0.30578,3.26353 2.8556,1.47876 z" />
      <path
         id="path8"
         style="fill:#071159;fill-rule:evenodd;stroke-width:0.264583"
         d="m 99.691665,233.24535 5.270235,2.73974 7.89236,-4.82831 -0.50099,-4.13858 c -2.73513,1.63605 -3.79616,2.32452 -6.53192,3.95986 l -1.42862,-0.679 z" />
    </g>
    <text
       xml:space="preserve"
       style="font-style:normal;font-variant:normal;font-weight:normal;font-stretch:normal;font-size:5.16745px;line-height:1.25;font-family:'Comic Sans MS';-inkscape-font-specification:'Comic Sans MS';fill:#000000;fill-opacity:1;stroke:none;stroke-width:0.129186"
       x="92.404037"
       y="240.05421"
       id="text9521"><tspan
         sodipodi:role="line"
         id="tspan9519"
         style="font-style:normal;font-variant:normal;font-weight:normal;font-stretch:normal;font-family:'Comic Sans MS';-inkscape-font-specification:'Comic Sans MS';stroke-width:0.129186"
         x="92.404037"
         y="240.05421">CarpenPi</tspan></text>
    <text
       xml:space="preserve"
       style="font-style:normal;font-weight:normal;font-size:10.5833px;line-height:1.25;font-family:sans-serif;fill:#000000;fill-opacity:1;stroke:none;stroke-width:0.264583"
       x="123.12251"
       y="224.55666"
       id="text12505"><tspan
         sodipodi:role="line"
         id="tspan12503"
         style="stroke-width:0.264583"
         x="123.12251"
         y="224.55666"></tspan></text>
  </g>
  <g
     inkscape:groupmode="layer"
     id="layer4"
     inkscape:label="Layer 2"
     style="display:inline"
     transform="translate(-92.517118,-215.02001)">
    <g
       id="g6473"
       transform="matrix(0.17035616,0,0,0.17035616,83.290846,193.33928)">
      <path
         style="fill:#008000;stroke:#000000;stroke-width:0.264583px;stroke-linecap:butt;stroke-linejoin:miter;stroke-opacity:1"
         d="m 128.36861,152.64919 -0.59706,3.58238 c 0,0 1.79119,4.77651 2.58728,5.77161 0.79608,0.99511 4.37846,4.57749 4.37846,4.57749 l 5.37357,2.78629 2.58727,0.99511 1.39315,6.16965 5.57259,1.19413 0.59707,2.7863 3.18433,3.18433 4.97553,-0.9951 -0.19902,-4.97553 -1.79119,-3.38336 1.39315,-1.79119 -5.77161,-3.58238 -9.15497,-0.59706 -0.39805,-5.77161 -2.58727,-9.15498 c 0,0 0,-0.39804 -0.99511,0 -0.9951,0.39805 -3.18433,3.18434 -3.18433,3.18434 l -0.59707,-1.59217 z"
         id="path6320" />
      <path
         style="fill:#ff0066;stroke:#000000;stroke-width:0.264583px;stroke-linecap:butt;stroke-linejoin:miter;stroke-opacity:1"
         d="m 125.58232,158.02276 c 0,0 6.16965,5.37357 6.36868,6.16965 0.19902,0.79609 4.17944,4.17945 4.17944,4.17945 l 5.97063,0.39804 0.59706,4.97553 2.7863,3.38336 3.98042,3.58238 1.79119,1.39314 4.17945,3.7814 c 0,0 -2.98532,5.17455 -3.78141,5.97064 -0.79608,0.79608 -3.98042,1.59217 -3.98042,1.59217 0,0 -5.17455,2.98531 -5.37357,3.7814 -0.19902,0.79608 -3.7814,3.58238 -3.7814,3.58238 l -7.76182,1.39315 -2.18923,-1.19413 c 0,0 -0.99511,2.78629 -1.99022,3.18434 -0.9951,0.39804 -4.7765,0.19902 -4.7765,0.19902 l -3.18434,-1.59217 -4.97553,0.9951 -4.17944,-3.18433 -0.39804,-6.36868 0.19902,-6.36867 1.39315,-4.17945 0.19902,-5.37357 2.58727,-3.7814 2.7863,-3.58238 c 0,0 2.38825,-3.38336 2.38825,-4.17944 0,-0.79608 1.19413,-5.77161 1.19413,-5.77161 z"
         id="path6355" />
      <path
         id="path5337"
         style="display:inline;fill:#000000;stroke:#000000;stroke-width:0.0769697"
         d="m 122.38168,206.47448 c -1.27913,-0.20336 -2.43834,-0.67006 -3.28766,-1.32363 -0.28422,-0.21871 -0.54278,-0.39764 -0.57458,-0.39764 -0.0318,0 -0.33674,0.13626 -0.67765,0.30282 -2.11954,1.03551 -4.28228,1.19288 -6.31004,0.45915 -1.65086,-0.59735 -3.20485,-2.065 -3.88915,-3.67308 -0.93428,-2.19553 -0.76945,-5.05433 0.4343,-7.53228 l 0.34332,-0.70672 -0.34816,-0.71722 c -0.50582,-1.04203 -0.69146,-1.87195 -0.69416,-3.10328 -0.004,-1.61268 0.41016,-2.99133 1.2747,-4.24789 0.40557,-0.58948 1.17302,-0.80713 1.79693,-0.50961 0.19528,0.0931 0.29639,0.10647 0.35588,0.047 0.0595,-0.0595 -0.0566,-0.25982 -0.40869,-0.70505 -1.96283,-2.48228 -1.98626,-5.72343 -0.0615,-8.5077 0.53847,-0.77894 1.71726,-1.89728 2.7059,-2.56717 l 0.81946,-0.55524 0.055,-0.55959 c 0.13286,-1.35056 0.69059,-2.83929 1.51399,-4.04119 0.22524,-0.32878 0.75155,-0.93732 1.16958,-1.35231 l 0.76005,-0.75453 -0.0405,-0.35931 c -0.063,-0.55935 0.0803,-1.78503 0.29564,-2.52819 0.67766,-2.33846 1.95213,-4.05329 3.91482,-5.26748 1.19693,-0.74046 2.40371,-1.12805 3.7773,-1.21318 l 0.84667,-0.0525 0.046,-1.34697 c 0.0463,-1.35684 0.13144,-1.88493 0.45267,-2.8093 0.37345,-1.07468 0.75106,-1.34297 1.97835,-1.40561 2.29802,-0.11728 4.62212,0.71869 6.23932,2.24427 0.2963,0.27952 0.571,0.50822 0.61043,0.50822 0.0394,0 0.22372,-0.21557 0.40953,-0.47903 0.41505,-0.58856 1.4991,-1.72812 1.78414,-1.87552 0.26591,-0.13751 0.84109,-0.13962 1.16278,-0.004 0.30328,0.1276 1.20905,1.07176 1.82455,1.90188 2.33552,3.14992 3.52099,6.95738 3.35958,10.79013 -0.0297,0.7054 -0.0199,1.1353 0.0259,1.1353 0.14189,0 1.59898,-1.50669 2.05666,-2.12668 1.18075,-1.59944 1.68385,-2.97872 1.74369,-4.78049 0.0259,-0.78023 0.0487,-0.89516 0.23204,-1.17226 0.36127,-0.54591 1.19063,-0.78809 1.73493,-0.50662 0.28232,0.14599 0.68498,0.60871 0.74792,0.85948 0.0274,0.10916 0.0305,0.706 0.007,1.32631 -0.0719,1.88732 -0.57277,3.385 -1.72861,5.16874 -0.55846,0.86185 -0.89036,1.26529 -1.82049,2.21288 -0.42593,0.43392 -0.74039,0.79169 -0.69881,0.79504 0.0416,0.003 0.49123,0.001 0.99923,-0.005 3.73153,-0.0442 7.41889,1.15799 10.39091,3.38785 1.46018,1.09555 2.03969,1.76946 2.03969,2.37193 0,0.58769 -0.37506,1.07123 -1.57343,2.02848 -0.42578,0.34011 -0.80564,0.64752 -0.84414,0.68313 -0.0403,0.0373 0.14426,0.29188 0.43583,0.60097 1.52918,1.621 2.31408,3.64461 2.31804,5.97629 0.002,0.8916 -0.018,1.04356 -0.17553,1.36903 -0.10197,0.21064 -0.2963,0.44741 -0.45763,0.55757 -0.37006,0.25268 -1.50805,0.61306 -2.30086,0.72864 l -0.635,0.0926 v 0.75076 c 0,3.14597 -1.87315,6.12257 -4.77212,7.58334 -1.11012,0.55938 -2.59299,0.96153 -3.54552,0.96153 -0.50451,0 -0.43189,-0.0627 -1.06972,0.92363 -0.48739,0.7537 -1.40172,1.72984 -2.14474,2.28972 -1.02417,0.77174 -2.51483,1.44019 -3.56048,1.59661 -0.19408,0.029 -0.38668,0.0757 -0.42802,0.10368 -0.0413,0.028 -0.27609,0.36263 -0.52169,0.74363 -0.56212,0.87202 -1.77019,2.08208 -2.68131,2.68573 -0.83313,0.55199 -1.81681,0.99204 -2.80529,1.25496 -0.65218,0.17346 -0.90954,0.20056 -1.90839,0.20092 -1.03111,0 -1.22702,-0.0216 -1.83245,-0.20503 -0.37285,-0.11299 -0.84795,-0.2916 -1.05577,-0.39692 -0.20783,-0.10531 -0.40619,-0.19148 -0.4408,-0.19148 -0.0346,0 -0.1287,0.11132 -0.20907,0.24739 -0.27539,0.46619 -1.36382,1.51729 -1.98146,1.91349 -1.2248,0.78568 -2.41294,1.14245 -3.94772,1.18544 -0.55033,0.0154 -1.10451,0.0115 -1.23151,-0.009 z m 2.47828,-3.03722 c 1.08497,-0.3292 2.07209,-1.11433 2.51272,-1.99853 l 0.19707,-0.39548 -0.22077,-0.39639 c -0.12142,-0.21801 -0.32757,-0.70221 -0.45812,-1.076 -0.37705,-1.07956 -0.30634,-1.69659 0.25046,-2.18546 0.50002,-0.43903 1.07265,-0.49239 1.67973,-0.15653 0.37582,0.20792 0.54408,0.45268 0.75439,1.09737 0.24996,0.76621 0.59842,1.3929 1.00879,1.81421 1.55372,1.59515 4.58275,1.18194 6.68616,-0.9121 l 0.49539,-0.49317 -0.55144,-0.29018 c -1.02567,-0.53971 -1.94952,-1.35917 -2.52021,-2.23543 -0.39354,-0.60426 -0.54362,-0.9464 -0.72586,-1.65485 l -0.13859,-0.53879 -0.83643,-0.0488 c -0.58417,-0.0341 -1.02577,-0.10987 -1.46426,-0.25123 l -0.62785,-0.20242 -1.027,1.02807 c -2.20755,2.20985 -4.2611,3.35139 -6.47262,3.59807 l -0.82742,0.0923 -0.001,0.31656 c -0.004,1.14941 -0.67875,2.97705 -1.47146,3.98371 -0.12147,0.15426 -0.22087,0.31327 -0.22087,0.35338 0,0.17803 1.11239,0.63398 1.80879,0.74138 0.46078,0.0711 1.65508,-0.0333 2.17041,-0.18966 z m -9.88546,-0.41 c 1.72218,-0.32951 3.42235,-1.48803 4.12877,-2.81343 0.13304,-0.24959 0.31031,-0.72134 0.39394,-1.04832 0.1514,-0.59202 0.20193,-1.52683 0.0919,-1.6999 -0.0318,-0.05 -0.31703,-0.26184 -0.63382,-0.47072 -0.3168,-0.20887 -0.7947,-0.57985 -1.062,-0.82438 l -0.486,-0.44461 -0.74551,0.35646 c -1.03156,0.49324 -1.78785,0.68148 -2.78522,0.69323 -1.02003,0.012 -1.74131,-0.15057 -2.65725,-0.59902 -0.48668,-0.23827 -0.7077,-0.31167 -0.74904,-0.24872 -0.13282,0.20222 -0.4404,1.36462 -0.5226,1.97505 -0.16306,1.21087 0.082,2.54957 0.62039,3.38852 0.52916,0.82463 1.53387,1.50722 2.53881,1.72484 0.65589,0.14203 1.16707,0.14505 1.86767,0.011 z m 26.25527,-6.9692 c 0.75068,-0.192 1.65009,-0.65834 2.26951,-1.17674 0.97107,-0.8127 1.79769,-2.07977 2.04589,-3.13599 0.24574,-1.04577 0.0563,-2.67327 -0.30762,-2.64299 -0.0824,0.007 -0.44422,0.11803 -0.80406,0.24705 -0.95472,0.34233 -1.95433,0.49723 -2.90557,0.45026 l -0.78892,-0.0389 -0.3775,0.47277 c -0.82476,1.03288 -2.09864,2.13396 -3.14749,2.7205 l -0.49524,0.27695 0.0469,0.34176 c 0.0716,0.52273 0.30728,0.97849 0.7454,1.44173 1.0046,1.06222 2.26408,1.41569 3.71875,1.04365 z m -17.15476,-1.0352 c 0.62772,-0.21879 1.42205,-0.64451 2.07031,-1.1096 0.63056,-0.45239 2.07395,-1.77566 2.20603,-2.02244 0.0607,-0.11338 0.004,-0.23024 -0.2919,-0.59687 -0.49731,-0.61715 -0.90017,-1.31299 -1.18072,-2.03934 -0.24668,-0.63866 -0.52988,-1.84231 -0.53191,-2.2607 -10e-4,-0.28332 -0.026,-0.29335 -0.88636,-0.36151 -2.00868,-0.15912 -4.23272,-1.60149 -5.31392,-3.44625 -0.60582,-1.03369 -0.9277,-2.14123 -1.00914,-3.4723 l -0.0487,-0.79616 -0.43168,-0.0915 c -1.40341,-0.29741 -3.17095,-1.47961 -3.85684,-2.5796 -0.14817,-0.23762 -0.29939,-0.43248 -0.33605,-0.43302 -0.12773,-0.002 -0.78508,0.52734 -1.21541,0.9785 -0.95699,1.0033 -1.37504,1.93589 -1.43242,3.19548 -0.0323,0.70874 -0.0134,0.90216 0.13212,1.35478 0.2047,0.63661 0.47541,1.06033 1.04737,1.63934 0.75561,0.76493 1.68375,1.14365 2.8028,1.14365 0.84765,0 1.41881,-0.15152 2.2224,-0.58956 0.60596,-0.33031 0.67233,-0.34917 1.12685,-0.32023 0.57017,0.0363 0.94983,0.27691 1.19487,0.75724 0.16359,0.32067 0.2006,0.86459 0.0803,1.18088 -0.0401,0.10542 -0.31724,0.51354 -0.61591,0.90693 -0.6424,0.84614 -1.06322,1.63096 -1.35603,2.52898 -0.18452,0.56593 -0.21416,0.78411 -0.21955,1.61636 -0.009,1.36787 0.24411,2.12135 1.05576,3.14454 0.67826,0.85504 1.44355,1.41122 2.36315,1.71745 0.54276,0.18074 1.84621,0.15651 2.42455,-0.0451 z m -9.16529,-1.38135 c 0.27577,-0.1001 0.58716,-0.2382 0.69198,-0.30688 l 0.19058,-0.12487 -0.18113,-0.53253 c -0.48254,-1.41873 -0.46735,-3.46123 0.037,-4.97685 0.0926,-0.27835 0.15525,-0.51927 0.13914,-0.53537 -0.0161,-0.0161 -0.32332,-0.0658 -0.68272,-0.11048 -1.52245,-0.18919 -2.90947,-0.79154 -3.85135,-1.67256 -0.20049,-0.18753 -0.38462,-0.30847 -0.40917,-0.26874 -0.0246,0.0397 0.0123,0.11945 0.0819,0.17716 0.20043,0.16623 0.33359,0.56634 0.33359,1.00238 0,0.33071 -0.0541,0.49312 -0.30466,0.91491 -0.5,0.84163 -0.71668,1.59307 -0.72029,2.49795 -0.006,1.53573 0.60765,2.74005 1.81996,3.57099 0.84039,0.57602 1.90031,0.71148 2.85516,0.36489 z m 34.49946,-2.5978 c 1.95597,-0.6036 3.46503,-2.07775 4.04215,-3.94865 0.25776,-0.83562 0.28263,-2.32138 0.04,-2.3878 -0.83166,-0.22764 -1.86746,-0.61689 -2.50901,-0.94286 -0.44247,-0.22482 -0.81157,-0.40877 -0.8202,-0.40877 -0.009,0 -0.037,0.11386 -0.0632,0.25302 -0.13408,0.71471 -1.35476,2.74761 -2.04048,3.3982 -0.13105,0.12433 -0.23828,0.26765 -0.23828,0.31848 0,0.0508 0.10312,0.31278 0.22915,0.58211 0.35194,0.75213 0.54463,1.6112 0.56295,2.50991 0.0186,0.91026 -0.0214,0.87888 0.79692,0.62636 z m -14.61931,-0.2131 c 0.87378,-0.30416 1.70729,-0.84492 2.52393,-1.63747 0.53454,-0.51878 0.67515,-0.69732 0.61575,-0.78192 -0.0423,-0.0603 -0.29493,-0.36522 -0.56133,-0.67761 -0.54004,-0.63327 -1.15684,-1.80358 -1.37436,-2.60768 -0.14711,-0.54381 -0.19803,-2.56243 -0.0817,-3.24063 l 0.0607,-0.35427 -0.56105,-0.0426 c -1.53828,-0.11674 -2.88311,-0.78271 -4.01915,-1.99032 -0.9146,-0.97223 -1.43654,-1.95492 -1.70606,-3.21216 l -0.13778,-0.64267 -0.27387,0.047 c -0.98762,0.16962 -1.50149,0.20881 -2.11672,0.16141 -0.80977,-0.0624 -1.66753,-0.26857 -2.26814,-0.54521 l -0.43023,-0.19817 -0.66211,0.689 c -1.22393,1.27364 -1.70171,2.26824 -1.70811,3.55584 -0.006,1.3046 0.387,2.29205 1.25751,3.15575 1.40505,1.39406 3.37666,1.61948 5.49248,0.62797 0.79278,-0.37151 1.37571,-0.76555 2.12417,-1.43583 0.71074,-0.63651 1.12492,-0.84053 1.59811,-0.7872 0.45762,0.0516 0.9358,0.39293 1.15355,0.82346 0.32351,0.63961 0.19012,1.19659 -0.43641,1.82225 -0.95548,0.95416 -2.55805,2.04323 -3.55554,2.41627 l -0.47381,0.1772 0.0463,0.60053 c 0.0865,1.12209 0.53263,2.13768 1.29869,2.95659 1.17508,1.25617 2.66332,1.65363 4.19518,1.12041 z m 7.77734,-4.01364 c 2.03075,-0.32956 3.98718,-2.00338 4.69298,-4.01507 0.26213,-0.74712 0.32319,-1.81847 0.14391,-2.52511 -0.25196,-0.99316 -0.95365,-1.8049 -1.86658,-2.15933 -0.35911,-0.13941 -0.61271,-0.17598 -1.25797,-0.18141 -1.20549,-0.0101 -1.51252,0.093 -2.09703,0.7044 -0.55628,0.58187 -1.43476,1.25817 -2.16407,1.66603 -0.47587,0.26612 -0.52543,0.32022 -0.78213,0.85394 -0.37465,0.77892 -0.52265,1.52264 -0.47515,2.38763 0.0465,0.84617 0.22035,1.39475 0.63433,2.00122 0.75391,1.10443 1.74264,1.49961 3.17171,1.2677 z m 14.33537,-4.79649 0.42334,-0.0888 -0.013,-0.47515 c -0.0179,-0.65544 -0.28217,-1.56443 -0.66549,-2.28873 -0.33861,-0.63984 -1.18956,-1.62256 -1.72819,-1.99583 l -0.30062,-0.20833 -0.78022,0.30927 c -0.96739,0.38347 -2.19228,0.73173 -3.23191,0.91889 -0.43601,0.0785 -0.81307,0.16304 -0.83791,0.18789 -0.0249,0.0248 0.0239,0.21076 0.10826,0.41313 0.0844,0.20237 0.19789,0.53382 0.25223,0.73656 0.0894,0.33352 0.16188,0.41606 0.76144,0.8671 1.09743,0.82559 2.4797,1.44707 3.65619,1.64387 0.56589,0.0947 1.86188,0.0837 2.35584,-0.0199 z m -19.5503,-3.7419 c 2.31325,-0.77485 4.00145,-2.68358 4.31361,-4.8771 0.16238,-1.14105 -0.20132,-2.17851 -1.03812,-2.9613 -0.63322,-0.59235 -1.1366,-0.79601 -2.08246,-0.84257 -0.89646,-0.0441 -1.55018,0.10651 -2.5013,0.57638 -0.63799,0.31518 -0.83989,0.46917 -1.58694,1.21032 -0.98167,0.97393 -1.3222,1.44865 -1.65278,2.30405 -0.54885,1.42018 -0.30952,2.68432 0.71634,3.78367 0.47164,0.50543 1.15024,0.91967 1.69436,1.0343 0.51885,0.10931 1.41665,0.0136 2.13729,-0.22775 z m -17.16009,-2.63916 c 0.37641,-0.61269 0.8924,-1.26744 1.48347,-1.88242 l 0.53312,-0.55468 -0.31428,-0.63835 c -0.53611,-1.08891 -0.66612,-1.68562 -0.65893,-3.0244 0.005,-0.90128 0.04,-1.27876 0.1605,-1.72077 l 0.15432,-0.56623 -0.25048,0.0406 c -0.35029,0.0568 -1.11188,0.37372 -1.63351,0.67966 -0.24213,0.14201 -0.77083,0.58725 -1.17489,0.98942 -1.00532,1.00061 -1.51636,1.9868 -1.69496,3.27087 -0.13922,1.00096 0.16248,2.13874 0.72096,2.7189 0.49089,0.50995 1.64672,1.0757 2.22135,1.0873 0.16639,0.003 0.25188,-0.0721 0.45333,-0.39995 z m 30.22714,-0.0939 c 1.29703,-0.26989 2.41373,-0.65476 3.59689,-1.23968 1.10143,-0.54451 2.30909,-1.32577 2.30909,-1.4938 0,-0.16877 -1.44567,-1.11916 -2.46303,-1.61919 -2.19765,-1.08016 -4.30292,-1.52463 -6.81182,-1.43812 -1.2546,0.0433 -2.83473,0.26845 -3.03191,0.4321 -0.0755,0.0627 -0.05,0.21735 0.119,0.72266 0.36317,1.08579 0.422,2.58216 0.14127,3.59268 -0.15892,0.57202 -0.15681,0.57412 0.67422,0.67465 0.70002,0.0847 1.68003,0.35783 1.99775,0.55683 0.24531,0.15364 2.38335,0.0377 3.46854,-0.18813 z m -21.61068,-2.78527 c 0.23283,-0.0645 0.65597,-0.23904 0.94031,-0.38791 0.46555,-0.24375 0.54466,-0.32104 0.79524,-0.7769 0.36883,-0.67101 0.97039,-1.45584 1.6938,-2.20983 0.32493,-0.33867 0.61903,-0.6896 0.65354,-0.77985 0.0345,-0.0902 0.0983,-0.41989 0.14181,-0.73254 0.25609,-1.84119 -0.72926,-3.39231 -2.38948,-3.76147 -0.66674,-0.14825 -1.81585,-0.0597 -2.55796,0.19722 -0.68583,0.2374 -1.76458,0.92458 -2.25082,1.43381 -0.35912,0.3761 -0.92876,1.17985 -1.16412,1.64255 -0.60063,1.18082 -0.68217,2.67887 -0.20318,3.7321 0.64913,1.42729 2.5379,2.14211 4.34086,1.64282 z m 12.26733,-6.40074 c 0.47434,-2.63672 0.35513,-4.85355 -0.38781,-7.21087 -0.47977,-1.52232 -2.01941,-4.33175 -2.41575,-4.40807 -0.0752,-0.0145 -0.28498,0.23423 -0.58347,0.69181 -1.56805,2.40392 -2.33226,4.79699 -2.46503,7.71911 l -0.0497,1.09454 0.27965,0.84992 c 0.15381,0.46746 0.30221,1.09253 0.32976,1.38906 0.0276,0.29652 0.0736,0.57713 0.1023,0.62357 0.0365,0.059 0.23622,0.0341 0.66308,-0.0828 0.50468,-0.13816 0.8183,-0.16726 1.80392,-0.16736 1.05541,-8e-5 1.26406,0.022 1.80879,0.19156 0.7491,0.2332 0.74796,0.23406 0.9143,-0.69048 z m -19.89807,-2.05005 c 0.35392,-0.0656 0.96006,-0.11958 1.34697,-0.11992 l 0.70346,-6.1e-4 0.64055,-0.61395 c 0.99621,-0.95485 2.21038,-1.70516 3.36188,-2.07753 0.29633,-0.0958 0.56653,-0.19942 0.60045,-0.23022 0.0339,-0.0308 -0.0404,-0.22567 -0.16508,-0.43305 -0.12472,-0.20738 -0.32565,-0.56713 -0.44652,-0.79944 -0.25297,-0.4862 -0.36751,-0.52836 -1.45128,-0.53417 -1.77507,-0.009 -3.53721,0.98712 -4.58883,2.59535 -0.39298,0.60096 -0.80034,1.56514 -0.88502,2.09471 -0.0471,0.29459 -0.0383,0.32086 0.094,0.28152 0.0803,-0.0239 0.43551,-0.0971 0.78944,-0.16269 z m 11.50738,-2.71703 c 0.0222,-0.11642 0.0804,-0.47144 0.12929,-0.78894 0.18827,-1.22246 0.56861,-2.60174 1.01645,-3.68611 0.23429,-0.56732 0.23455,-0.56954 0.0945,-0.82956 -0.19576,-0.36351 -1.30244,-1.39725 -1.82905,-1.70851 -0.84054,-0.4968 -2.68916,-0.97689 -2.9534,-0.767 -0.12566,0.0998 -0.25796,0.93562 -0.25479,1.6096 0.009,1.8244 0.83171,3.80379 2.26991,5.45855 0.33596,0.38653 0.54269,0.5471 0.90916,0.7061 0.59499,0.25816 0.56983,0.25792 0.61792,0.006 z" />
    </g>
  </g>
</svg>
